# xmcd
#
# Track frame offsets: 
#        150
#        16524
#        33196
#        46054
#        61916
#        89995
#        108561
#        120741
#        133814
#        147109
#        163277
#        181477
#        198248
#        212871
#        229895
#        250905
#        270228
#        289010
#        306930
#        320578
#        337875
#
# Disc length: 4681 seconds
#
# Revision: 2
# Processed by: cddbd v1.5.2PL0 Copyright (c) Steve Scherf et al.
# Submitted via: ExactAudioCopyFreeDBPlugin 1.0
#
DISCID=33124715
DTITLE=Various Artist - Daptone Gold II
DYEAR=2015
DGENRE=Rhythm and Blues
TTITLE0=Sharon Jones and The Dap-Kings - Better Things
TTITLE1=Charles Bradley - Strictly Reserved
TTITLE2=Naomi Shelton and The Gospel Queens - Sinner
TTITLE3=Saun and Starr - Hot Shot
TTITLE4=Antibalas - Dirty Money
TTITLE5=Sharon Jones and The Dap-Kings - Inspiration Information
TTITLE6=Menahan Street Band - The Traitor
TTITLE7=Charles Bradley - Heartaches and Pain
TTITLE8=The Budos Band - Unbroken Unshaven
TTITLE9=Sharon Jones and The Dap-Kings - Retreat!
TTITLE10=The Sugarman 3 - Witches Boogaloo
TTITLE11=Saun and Starr - Look Closer (Can't You See the Signs?)
TTITLE12=Menahan Street Band - Keep Coming Back
TTITLE13=Sharon Jones and The Dap-Kings - I Learned the Hard Way
TTITLE14=The Sugarman 3 - Got to Get Back to My Baby
TTITLE15=The Budos Band - Aphasia
TTITLE16=The Como Mamas - Out of the Wilderness
TTITLE17=Sharon Jones and The Dap-Kings - Little Boys with Shiny Toys
TTITLE18=Naomi Shelton and The Gospel Queens - You Gotta Move
TTITLE19=Charles Bradley and Larose Jackson - Luv Jones
TTITLE20=The Dap-Kings - Thunderclap
EXTD=
EXTT0=
EXTT1=
EXTT2=
EXTT3=
EXTT4=
EXTT5=
EXTT6=
EXTT7=
EXTT8=
EXTT9=
EXTT10=
EXTT11=
EXTT12=
EXTT13=
EXTT14=
EXTT15=
EXTT16=
EXTT17=
EXTT18=
EXTT19=
EXTT20=
PLAYORDER=
